<?xml version="1.0" encoding="UTF-8" standalone="no"?>
<!-- Created with Inkscape (http://www.inkscape.org/) -->

<svg
   width="235.98047mm"
   height="77.853134mm"
   viewBox="0 0 235.98047 77.853134"
   version="1.1"
   id="svg2403"
   inkscape:version="1.2.2 (732a01da63, 2022-12-09)"
   sodipodi:docname="geometria-total.svg"
   xmlns:inkscape="http://www.inkscape.org/namespaces/inkscape"
   xmlns:sodipodi="http://sodipodi.sourceforge.net/DTD/sodipodi-0.dtd"
   xmlns="http://www.w3.org/2000/svg"
   xmlns:svg="http://www.w3.org/2000/svg">
  <sodipodi:namedview
     id="namedview2405"
     pagecolor="#ffffff"
     bordercolor="#000000"
     borderopacity="0.25"
     inkscape:showpageshadow="2"
     inkscape:pageopacity="0.0"
     inkscape:pagecheckerboard="0"
     inkscape:deskcolor="#d1d1d1"
     inkscape:document-units="mm"
     showgrid="false"
     inkscape:zoom="0.4204826"
     inkscape:cx="474.45482"
     inkscape:cy="160.52983"
     inkscape:window-width="1920"
     inkscape:window-height="1001"
     inkscape:window-x="-9"
     inkscape:window-y="-9"
     inkscape:window-maximized="1"
     inkscape:current-layer="layer1" />
  <defs
     id="defs2400">
    <rect
       x="102.32125"
       y="105.73282"
       width="39.894592"
       height="66.95507"
       id="rect10655" />
    <rect
       x="102.32125"
       y="105.73282"
       width="39.894592"
       height="66.95507"
       id="rect10655-1" />
    <rect
       x="267.01212"
       y="95.34153"
       width="50.870186"
       height="39.943493"
       id="rect10694" />
    <rect
       x="267.01212"
       y="95.34153"
       width="50.870186"
       height="39.943493"
       id="rect10694-9" />
    <rect
       x="267.01212"
       y="95.34153"
       width="50.870186"
       height="39.943493"
       id="rect10694-9-4" />
    <rect
       x="267.01212"
       y="95.34153"
       width="50.870186"
       height="39.943493"
       id="rect10694-9-1" />
    <rect
       x="267.01212"
       y="95.34153"
       width="50.870186"
       height="39.943493"
       id="rect10694-9-1-6" />
    <rect
       x="102.32125"
       y="105.73282"
       width="39.894592"
       height="66.95507"
       id="rect10655-6" />
    <rect
       x="102.32125"
       y="105.73282"
       width="39.894592"
       height="66.95507"
       id="rect10655-1-0" />
    <rect
       x="102.32125"
       y="105.73282"
       width="39.894592"
       height="66.95507"
       id="rect10655-1-5" />
    <rect
       x="102.32125"
       y="105.73282"
       width="39.894592"
       height="66.95507"
       id="rect10655-1-0-40" />
    <rect
       x="102.32125"
       y="105.73282"
       width="39.894592"
       height="66.95507"
       id="rect10655-1-0-8" />
    <rect
       x="102.32125"
       y="105.73282"
       width="39.894592"
       height="66.95507"
       id="rect10655-1-0-4" />
    <rect
       x="102.32125"
       y="105.73282"
       width="134.14165"
       height="82.866913"
       id="rect10655-1-0-4-6" />
    <rect
       x="102.32125"
       y="105.73282"
       width="39.894592"
       height="66.95507"
       id="rect10655-1-0-3" />
    <rect
       x="102.32125"
       y="105.73282"
       width="134.14165"
       height="82.866913"
       id="rect10655-1-0-4-6-2" />
    <rect
       x="102.32125"
       y="105.73282"
       width="134.14165"
       height="82.866913"
       id="rect10655-1-0-4-6-0" />
  </defs>
  <g
     inkscape:label="Camada 1"
     inkscape:groupmode="layer"
     id="layer1"
     transform="translate(-9.1156969,-72.597888)">
    <path
       style="opacity:0.96;fill:none;stroke:#000080;stroke-width:0.25;stroke-dasharray:none;stroke-dashoffset:0"
       d="M 9.687411,79.39075 H 113.33152 V 131.4204 H 9.9339101 V 79.212408"
       id="path9249"
       sodipodi:nodetypes="ccccc" />
    <path
       style="opacity:0.96;fill:none;stroke:#000080;stroke-width:0.25;stroke-dasharray:2, 0.25;stroke-dashoffset:0"
       d="M 30.963076,114.40623 V 96.055658"
       id="path9253" />
    <path
       style="opacity:0.96;fill:none;stroke:#000080;stroke-width:0.25;stroke-dasharray:2, 0.25;stroke-dashoffset:0"
       d="m 21.405035,105.23076 c 0.266909,8e-4 19.116815,0 19.116815,0"
       id="path9255" />
    <ellipse
       style="opacity:0.96;fill:none;stroke:#000080;stroke-width:0.25;stroke-dasharray:none;stroke-dashoffset:0"
       id="path9312"
       cx="30.713091"
       cy="105.48108"
       rx="5.417026"
       ry="5.6412654" />
    <path
       style="opacity:0.96;fill:none;stroke:#000080;stroke-width:0.25;stroke-dasharray:2, 0.25;stroke-dashoffset:0"
       d="M 93.381612,114.2974 V 95.946824"
       id="path9253-6" />
    <path
       style="opacity:0.96;fill:none;stroke:#000080;stroke-width:0.25;stroke-dasharray:2, 0.25;stroke-dashoffset:0"
       d="m 83.823571,105.12193 c 0.266909,7.9e-4 19.116819,0 19.116819,0"
       id="path9255-4" />
    <ellipse
       style="opacity:0.96;fill:none;stroke:#000080;stroke-width:0.25;stroke-dasharray:none;stroke-dashoffset:0"
       id="path9312-5"
       cx="93.131622"
       cy="105.37225"
       rx="5.417026"
       ry="5.6412654" />
    <path
       style="opacity:0.96;fill:none;stroke:#000080;stroke-width:0.25;stroke-dasharray:none;stroke-dashoffset:0"
       d="m 45.887791,99.905306 h 0.225255 29.134686 V 110.67098 H 45.788358 V 99.657203"
       id="path9346"
       sodipodi:nodetypes="cccccc" />
    <path
       style="opacity:0.96;fill:none;stroke:#000080;stroke-width:0.25;stroke-dasharray:none;stroke-dashoffset:0"
       d="m 9.9339101,89.986233 c 14.9656989,0 14.9656989,0 14.9656989,0"
       id="path9348" />
    <path
       style="opacity:0.96;fill:none;stroke:#000080;stroke-width:0.248923;stroke-dasharray:none;stroke-dashoffset:0"
       d="m 98.923649,89.989172 c 14.407871,0 14.407871,0 14.407871,0"
       id="path9348-8" />
    <path
       style="opacity:0.96;fill:none;stroke:#000080;stroke-width:0.25;stroke-dasharray:none;stroke-dashoffset:0"
       d="m 24.934651,100.10802 c 0,-15.281326 0,-15.281326 0,-15.281326"
       id="path9350" />
    <path
       style="opacity:0.96;fill:none;stroke:#000080;stroke-width:0.25;stroke-dasharray:none;stroke-dashoffset:0"
       d="m 99.048651,100.18335 c 0,-15.281332 0,-15.281332 0,-15.281332"
       id="path9350-5" />
    <path
       style="opacity:0.96;fill:none;stroke:#000080;stroke-width:0.25;stroke-dasharray:none;stroke-dashoffset:0"
       d="m 23.309167,91.611939 c 3.246742,-3.409852 3.246742,-3.409852 3.246742,-3.409852"
       id="path9352" />
    <path
       style="opacity:0.96;fill:none;stroke:#000080;stroke-width:0.25;stroke-dasharray:none;stroke-dashoffset:0"
       d="m 97.300279,91.643361 c 3.246741,-3.409852 3.246741,-3.409852 3.246741,-3.409852"
       id="path9352-4" />
    <path
       style="opacity:0.96;fill:none;stroke:#000080;stroke-width:0.25;stroke-dasharray:none;stroke-dashoffset:0"
       d="m 30.720099,84.811726 c 0,7.539964 0,7.539964 0,7.539964"
       id="path9485" />
    <path
       style="opacity:0.96;fill:none;stroke:#000080;stroke-width:0.25;stroke-dasharray:none;stroke-dashoffset:0"
       d="m 93.232901,84.669735 c 0,7.539964 0,7.539964 0,7.539964"
       id="path9485-4" />
    <path
       style="opacity:0.96;fill:none;stroke:#000080;stroke-width:0.25;stroke-dasharray:none;stroke-dashoffset:0"
       d="m 30.720099,89.982672 62.512802,-0.0625"
       id="path9509" />
    <path
       style="opacity:0.96;fill:none;stroke:#000080;stroke-width:0.25;stroke-dasharray:none;stroke-dashoffset:0"
       d="m 91.609655,91.500097 c 3.246742,-3.409852 3.246742,-3.409852 3.246742,-3.409852"
       id="path9352-4-5" />
    <path
       style="opacity:0.96;fill:none;stroke:#000080;stroke-width:0.25;stroke-dasharray:none;stroke-dashoffset:0"
       d="m 29.096602,91.500097 c 3.246742,-3.409852 3.246742,-3.409852 3.246742,-3.409852"
       id="path9352-4-4" />
    <path
       style="opacity:0.96;fill:none;stroke:#000080;stroke-width:0.25;stroke-dasharray:none;stroke-dashoffset:0"
       d="m 23.279388,127.51976 c 3.246742,-3.40985 3.246742,-3.40985 3.246742,-3.40985"
       id="path9352-4-4-3" />
    <path
       style="opacity:0.96;fill:none;stroke:#000080;stroke-width:0.25;stroke-dasharray:none;stroke-dashoffset:0"
       d="M 24.902761,110.51746 V 131.4204"
       id="path9546" />
    <path
       style="opacity:0.96;fill:none;stroke:#000080;stroke-width:0.25;stroke-dasharray:none;stroke-dashoffset:0"
       d="m 36.630118,110.28011 v 20.90293"
       id="path9546-9" />
    <path
       style="opacity:0.96;fill:none;stroke:#000080;stroke-width:0.25;stroke-dasharray:none;stroke-dashoffset:0"
       d="m 24.902761,125.56484 c 11.577357,0 11.577357,0 11.577357,0"
       id="path9570" />
    <path
       style="opacity:0.96;fill:none;stroke:#000080;stroke-width:0.25;stroke-dasharray:none;stroke-dashoffset:0"
       d="m 35.010426,127.51976 c 3.246742,-3.40985 3.246742,-3.40985 3.246742,-3.40985"
       id="path9352-4-4-6" />
    <path
       style="opacity:0.96;fill:none;stroke:#000080;stroke-width:0.25;stroke-dasharray:none;stroke-dashoffset:0"
       d="m 100.70666,127.76976 c -3.246742,-3.40985 -3.246742,-3.40985 -3.246742,-3.40985"
       id="path9352-4-4-3-0" />
    <path
       style="opacity:0.96;fill:none;stroke:#000080;stroke-width:0.25;stroke-dasharray:none;stroke-dashoffset:0"
       d="M 99.083288,110.76746 V 131.6704"
       id="path9546-2" />
    <path
       style="opacity:0.96;fill:none;stroke:#000080;stroke-width:0.25;stroke-dasharray:none;stroke-dashoffset:0"
       d="m 87.355931,110.5301 v 20.90294"
       id="path9546-9-3" />
    <path
       style="opacity:0.96;fill:none;stroke:#000080;stroke-width:0.25;stroke-dasharray:none;stroke-dashoffset:0"
       d="m 99.083288,125.81484 c -11.577357,0 -11.577357,0 -11.577357,0"
       id="path9570-1" />
    <path
       style="opacity:0.96;fill:none;stroke:#000080;stroke-width:0.25;stroke-dasharray:none;stroke-dashoffset:0"
       d="m 88.975622,127.76976 c -3.246741,-3.40985 -3.246741,-3.40985 -3.246741,-3.40985"
       id="path9352-4-4-6-3" />
    <path
       style="opacity:0.96;fill:none;stroke:#000080;stroke-width:0.25;stroke-dasharray:none;stroke-dashoffset:0"
       d="M 12.452966,146.99749 C 9.2062239,143.58764 9.2062239,143.58764 9.2062239,143.58764"
       id="path9352-4-4-6-3-2" />
    <path
       style="opacity:0.96;fill:none;stroke:#000080;stroke-width:0.25;stroke-dasharray:none;stroke-dashoffset:0"
       d="m 115.08613,147.25999 c -3.24674,-3.40986 -3.24674,-3.40986 -3.24674,-3.40986"
       id="path9352-4-4-6-3-8" />
    <path
       style="opacity:0.96;fill:none;stroke:#000080;stroke-width:0.25;stroke-dasharray:none;stroke-dashoffset:0"
       d="m 10.309851,145.30506 c 103.152909,0 103.152909,0 103.152909,0"
       id="path9570-6" />
    <path
       style="opacity:0.96;fill:none;stroke:#000080;stroke-width:0.25;stroke-dasharray:none;stroke-dashoffset:0"
       d="m 10.579594,136.02174 v 14.42928"
       id="path9546-5" />
    <path
       style="opacity:0.96;fill:none;stroke:#000080;stroke-width:0.25;stroke-dasharray:none;stroke-dashoffset:0"
       d="m 113.2487,135.9631 v 14.42928"
       id="path9546-5-1" />
    <path
       style="opacity:0.96;fill:none;stroke:#000080;stroke-width:0.25;stroke-dasharray:none;stroke-dashoffset:0"
       d="m 118.30122,131.09208 h 8.22361"
       id="path9546-5-1-1" />
    <path
       style="opacity:0.96;fill:none;stroke:#000080;stroke-width:0.25;stroke-dasharray:none;stroke-dashoffset:0"
       d="m 118.30154,79.473602 h 8.22361"
       id="path9546-5-1-1-3" />
    <path
       style="opacity:0.96;fill:none;stroke:#000080;stroke-width:0.25;stroke-dasharray:none;stroke-dashoffset:0"
       d="M 121.39869,79.473602 V 131.09208"
       id="path10594" />
    <path
       style="opacity:0.96;fill:none;stroke:#000080;stroke-width:0.25;stroke-dasharray:none;stroke-dashoffset:0"
       d="m 119.44376,132.71545 c 3.40986,-3.24674 3.40986,-3.24674 3.40986,-3.24674"
       id="path9352-4-4-6-3-8-2" />
    <path
       style="opacity:0.96;fill:none;stroke:#000080;stroke-width:0.25;stroke-dasharray:none;stroke-dashoffset:0"
       d="m 119.64739,81.241071 c 3.40985,-3.246734 3.40985,-3.246734 3.40985,-3.246734"
       id="path9352-4-4-6-3-8-2-9" />
    <text
       xml:space="preserve"
       id="text10653"
       style="font-stretch:condensed;font-size:32px;font-family:Arial;-inkscape-font-specification:'Arial Condensed';white-space:pre;shape-inside:url(#rect10655);display:inline;opacity:0.96;fill:#000000;stroke:#000000;stroke-width:0.944882;stroke-dasharray:none;stroke-dashoffset:0;stroke-opacity:0"
       transform="matrix(0.26458333,0,0,0.26458333,62.084428,88.586095)"><tspan
         x="102.32031"
         y="134.55656"
         id="tspan3205">Øe</tspan></text>
    <text
       xml:space="preserve"
       id="text10653-0"
       style="font-stretch:condensed;font-size:32px;font-family:Arial;-inkscape-font-specification:'Arial Condensed';white-space:pre;shape-inside:url(#rect10655-1);display:inline;opacity:0.96;fill:#000000;stroke:#000000;stroke-width:0.944882;stroke-dasharray:none;stroke-dashoffset:0;stroke-opacity:0"
       transform="matrix(0.26458333,0,0,0.26458333,75.407673,51.650995)"><tspan
         x="102.32031"
         y="134.55656"
         id="tspan3207">15</tspan></text>
    <text
       xml:space="preserve"
       id="text10692"
       style="font-stretch:condensed;font-size:32px;font-family:Arial;-inkscape-font-specification:'Arial Condensed';white-space:pre;shape-inside:url(#rect10694);display:inline;opacity:0.96;fill:#000000;stroke:#000000;stroke-width:0.944882;stroke-dasharray:none;stroke-dashoffset:0;stroke-opacity:0"
       transform="matrix(0.26458333,0,0,0.26458333,-14.714078,54.766846)"><tspan
         x="267.01172"
         y="124.16594"
         id="tspan3209">eixo</tspan></text>
    <text
       xml:space="preserve"
       id="text10692-0"
       style="font-stretch:condensed;font-size:32px;font-family:Arial;-inkscape-font-specification:'Arial Condensed';white-space:pre;shape-inside:url(#rect10694-9);display:inline;opacity:0.96;fill:#000000;stroke:#000000;stroke-width:0.944882;stroke-dasharray:none;stroke-dashoffset:0;stroke-opacity:0"
       transform="matrix(0.26458333,0,0,0.26458333,-13.396781,64.972383)"><tspan
         x="267.01172"
         y="124.16594"
         id="tspan3211">ap</tspan></text>
    <text
       xml:space="preserve"
       id="text10692-0-2"
       style="font-stretch:condensed;font-size:32px;font-family:Arial;-inkscape-font-specification:'Arial Condensed';white-space:pre;shape-inside:url(#rect10694-9-4);display:inline;opacity:0.96;fill:#000000;stroke:#000000;stroke-width:0.944882;stroke-dasharray:none;stroke-dashoffset:0;stroke-opacity:0"
       transform="matrix(0.26458333,0,0,0.26458333,-11.479745,110.27024)"><tspan
         x="267.01172"
         y="124.16594"
         id="tspan3213">A</tspan></text>
    <text
       xml:space="preserve"
       id="text10692-0-6"
       style="font-stretch:condensed;font-size:32px;font-family:Arial;-inkscape-font-specification:'Arial Condensed';white-space:pre;shape-inside:url(#rect10694-9-1);display:inline;opacity:0.96;fill:#000000;stroke:#000000;stroke-width:0.944882;stroke-dasharray:none;stroke-dashoffset:0;stroke-opacity:0"
       transform="matrix(0,0.26458333,-0.26458333,0,110.08256,31.222677)"><tspan
         x="267.01172"
         y="124.16594"
         id="tspan3215">bp</tspan></text>
    <text
       xml:space="preserve"
       id="text10692-0-6-8"
       style="font-stretch:condensed;font-size:32px;font-family:Arial;-inkscape-font-specification:'Arial Condensed';white-space:pre;shape-inside:url(#rect10694-9-1-6);display:inline;opacity:0.96;fill:#000000;stroke:#000000;stroke-width:0.944882;stroke-dasharray:none;stroke-dashoffset:0;stroke-opacity:0"
       transform="matrix(0,0.26458333,-0.26458333,0,155.61848,30.805292)"><tspan
         x="267.01172"
         y="124.16594"
         id="tspan3217">B</tspan></text>
    <text
       xml:space="preserve"
       id="text10653-2"
       style="font-stretch:condensed;font-size:32px;font-family:Arial;-inkscape-font-specification:'Arial Condensed';white-space:pre;shape-inside:url(#rect10655-6);display:inline;opacity:0.96;fill:#000000;stroke:#000000;stroke-width:0.944882;stroke-dasharray:none;stroke-dashoffset:0;stroke-opacity:0"
       transform="matrix(0.26458333,0,0,0.26458333,-0.54611919,88.50849)"><tspan
         x="102.32031"
         y="134.55656"
         id="tspan3219">Øe</tspan></text>
    <text
       xml:space="preserve"
       id="text10653-0-6"
       style="font-stretch:condensed;font-size:32px;font-family:Arial;-inkscape-font-specification:'Arial Condensed';white-space:pre;shape-inside:url(#rect10655-1-0);display:inline;opacity:0.96;fill:#000000;stroke:#000000;stroke-width:0.944882;stroke-dasharray:none;stroke-dashoffset:0;stroke-opacity:0"
       transform="matrix(0.26458333,0,0,0.26458333,-15.262792,51.85972)"><tspan
         x="102.32031"
         y="134.55656"
         id="tspan3221">15</tspan></text>
    <path
       style="opacity:0.96;fill:none;stroke:#000080;stroke-width:0.221044;stroke-dasharray:none;stroke-dashoffset:0"
       d="m 146.06367,86.029974 91.81996,0.03127 V 131.4204 H 146.17642 V 85.915121"
       id="path5509"
       sodipodi:nodetypes="ccccc" />
    <path
       style="opacity:0.96;fill:none;stroke:#000080;stroke-width:0.2;stroke-dasharray:none;stroke-dashoffset:0"
       d="M 182.77794,86.061242 V 72.597888"
       id="path5511" />
    <path
       style="opacity:0.96;fill:#ff0000;stroke:#ff0000;stroke-width:0.221044;stroke-dasharray:none;stroke-dashoffset:0"
       d="m 146.17642,129.15423 h 91.70721"
       id="path5535" />
    <path
       style="opacity:0.96;fill:none;stroke:#008000;stroke-width:0.265253;stroke-dasharray:1.06101, 0.265253;stroke-dashoffset:29.655"
       d="M 158.07762,131.4204 184.25436,94.280693 V 86.061242"
       id="path5537" />
    <path
       style="opacity:0.96;fill:none;stroke:#008000;stroke-width:0.265253;stroke-dasharray:1.06101, 0.265253;stroke-dashoffset:29.655"
       d="M 226.02136,131.46731 199.84462,94.327601 V 86.10815"
       id="path5537-0" />
    <path
       style="opacity:0.96;fill:none;stroke:#000080;stroke-width:0.190336;stroke-dasharray:none;stroke-dashoffset:0"
       d="m 152.93681,131.4204 c 0,0 0,17.99424 0,17.99424 l 1.31746,-0.25768 1.41846,-0.27744 2.18381,-0.22116 1.64978,0.0688 c 0,0 1.5746,0.27479 1.64879,0.30752 0.0742,0.0327 0.8315,0.22973 0.8315,0.22973 l 0.57921,0.1315 V 131.4204"
       id="path5561" />
    <path
       style="opacity:0.96;fill:none;stroke:#000080;stroke-width:0.221044;stroke-dasharray:none;stroke-dashoffset:0"
       d="m 156.29144,148.87356 0.88215,0.60898 0.77376,0.23603 0.3479,0.10612 1.04802,0.26828 1.28529,-0.0255 1.01992,-0.20306 0.91734,-0.46847"
       id="path5563"
       sodipodi:nodetypes="cccccccc" />
    <path
       style="opacity:0.96;fill:none;stroke:#000080;stroke-width:0.221044;stroke-dasharray:none;stroke-dashoffset:0"
       d="m 136.30162,131.69552 c 7.10201,0 7.10201,0 7.10201,0"
       id="path6530" />
    <path
       style="opacity:0.96;fill:none;stroke:#000080;stroke-width:0.222757;stroke-dasharray:none;stroke-dashoffset:0"
       d="m 237.88363,129.15337 c 7.21254,0 7.21254,0 7.21254,0"
       id="path6530-6" />
    <path
       style="opacity:0.96;fill:none;stroke:#000080;stroke-width:0.221044;stroke-dasharray:none;stroke-dashoffset:0"
       d="m 237.88363,131.4204 c 7.10202,0 7.10202,0 7.10202,0"
       id="path6530-5" />
    <path
       style="opacity:0.96;fill:none;stroke:#000080;stroke-width:0.221044;stroke-dasharray:none;stroke-dashoffset:0"
       d="m 136.52573,85.959629 c 6.43451,0 6.26738,0.01916 6.26738,0.01916"
       id="path6532" />
    <path
       style="opacity:0.96;fill:none;stroke:#000080;stroke-width:0.221044;stroke-dasharray:none;stroke-dashoffset:0"
       d="m 140.95469,85.964429 -0.29956,45.731091"
       id="path6534" />
    <path
       style="opacity:0.96;fill:none;stroke:#000080;stroke-width:0.221044;stroke-dasharray:none;stroke-dashoffset:0"
       d="m 142.47088,87.253817 c -2.58962,-2.581658 -2.58962,-2.581658 -2.58962,-2.581658"
       id="path6393-1-1" />
    <path
       style="opacity:0.96;fill:none;stroke:#000080;stroke-width:0.221044;stroke-dasharray:none;stroke-dashoffset:0"
       d="m 141.72856,132.98779 c -2.58962,-2.58166 -2.58962,-2.58166 -2.58962,-2.58166"
       id="path6393-1-1-1" />
    <path
       style="opacity:0.96;fill:none;stroke:#000080;stroke-width:0.221044;stroke-dasharray:none;stroke-dashoffset:0"
       d="m 242.72945,132.71123 c -2.58962,-2.58166 -2.58962,-2.58166 -2.58962,-2.58166"
       id="path6393-1-1-1-4" />
    <path
       style="opacity:0.96;fill:none;stroke:#000080;stroke-width:0.221044;stroke-dasharray:none;stroke-dashoffset:0"
       d="M 154.34686,129.15423 V 86.061242"
       id="path6580" />
    <path
       style="opacity:0.96;fill:none;stroke:#000080;stroke-width:0.221044;stroke-dasharray:none;stroke-dashoffset:0"
       d="m 155.42029,87.35207 c -2.58963,-2.581658 -2.58963,-2.581658 -2.58963,-2.581658"
       id="path6393-1-1-0" />
    <path
       style="opacity:0.96;fill:none;stroke:#000080;stroke-width:0.221044;stroke-dasharray:none;stroke-dashoffset:0"
       d="m 155.42029,130.44506 c -2.58962,-2.58166 -2.58962,-2.58166 -2.58962,-2.58166"
       id="path6393-1-1-5" />
    <path
       style="opacity:0.96;fill:none;stroke:#000080;stroke-width:0.221044;stroke-dasharray:none;stroke-dashoffset:0"
       d="m 156.84937,94.180762 c 27.40499,0.09993 27.40499,0.09993 27.40499,0.09993"
       id="path8372" />
    <path
       style="opacity:0.96;fill:none;stroke:#000080;stroke-width:0.221044;stroke-dasharray:none;stroke-dashoffset:0"
       d="M 161.22485,94.189835 V 131.42258"
       id="path8374" />
    <path
       style="opacity:0.96;fill:none;stroke:#000080;stroke-width:0.154271;stroke-dasharray:none;stroke-dashoffset:0"
       d="m 241.6486,128.63714 v 8.30471"
       id="path8374-3" />
    <path
       style="opacity:0.96;fill:none;stroke:#000080;stroke-width:0.221044;stroke-dasharray:none;stroke-dashoffset:0"
       d="m 162.35644,95.478485 c -2.58963,-2.581658 -2.58963,-2.581658 -2.58963,-2.581658"
       id="path6393-1-1-0-4" />
    <path
       style="opacity:0.96;fill:none;stroke:#000080;stroke-width:0.221044;stroke-dasharray:none;stroke-dashoffset:0"
       d="m 162.63035,132.71341 c -2.58962,-2.58167 -2.58962,-2.58167 -2.58962,-2.58167"
       id="path6393-1-1-0-0" />
    <path
       style="opacity:0.96;fill:none;stroke:#000080;stroke-width:0.221044;stroke-dasharray:none;stroke-dashoffset:0"
       d="m 242.78471,130.4442 c -2.58962,-2.58166 -2.58962,-2.58166 -2.58962,-2.58166"
       id="path6393-1-1-1-5" />
    <text
       xml:space="preserve"
       id="text10653-0-39"
       style="font-stretch:condensed;font-size:32px;font-family:Arial;-inkscape-font-specification:'Arial Condensed';white-space:pre;shape-inside:url(#rect10655-1-5);display:inline;opacity:0.96;fill:#000000;stroke:#000000;stroke-width:0.944882;stroke-dasharray:none;stroke-dashoffset:0;stroke-opacity:0"
       transform="matrix(0,-0.23357814,0.23429863,0,108.90733,144.34529)"><tspan
         x="102.32031"
         y="134.55656"
         id="tspan3223">h</tspan></text>
    <text
       xml:space="preserve"
       id="text10653-0-3"
       style="font-stretch:condensed;font-size:32px;font-family:Arial;-inkscape-font-specification:'Arial Condensed';white-space:pre;shape-inside:url(#rect10655-1-0-40);display:inline;opacity:0.96;fill:#000000;stroke:#000000;stroke-width:0.944882;stroke-dasharray:none;stroke-dashoffset:0;stroke-opacity:0"
       transform="matrix(0,-0.23357814,0.23429863,0,121.47146,145.48809)"><tspan
         x="102.32031"
         y="134.55656"
         id="tspan3225">d</tspan></text>
    <text
       xml:space="preserve"
       id="text10653-0-3-9"
       style="font-stretch:condensed;font-size:32px;font-family:Arial;-inkscape-font-specification:'Arial Condensed';white-space:pre;shape-inside:url(#rect10655-1-0-8);display:inline;opacity:0.96;fill:#000000;stroke:#000000;stroke-width:0.944882;stroke-dasharray:none;stroke-dashoffset:0;stroke-opacity:0"
       transform="matrix(0,-0.23357814,0.23429863,0,209.63768,160.87279)"><tspan
         x="102.32031"
         y="134.55656"
         id="tspan3227">5</tspan></text>
    <text
       xml:space="preserve"
       id="text10653-0-3-0"
       style="font-stretch:condensed;font-size:32px;font-family:Arial;-inkscape-font-specification:'Arial Condensed';white-space:pre;shape-inside:url(#rect10655-1-0-4);display:inline;opacity:0.96;fill:#000000;stroke:#000000;stroke-width:0.944882;stroke-dasharray:none;stroke-dashoffset:0;stroke-opacity:0"
       transform="matrix(0.23429863,0,0,0.23357814,187.15102,63.200444)"><tspan
         x="102.32031"
         y="134.55656"
         id="tspan3229">fcd</tspan></text>
    <text
       xml:space="preserve"
       id="text10653-0-3-0-7"
       style="font-stretch:condensed;font-size:32px;font-family:Arial;-inkscape-font-specification:'Arial Condensed';white-space:pre;shape-inside:url(#rect10655-1-0-4-6);display:inline;opacity:0.96;fill:#000000;stroke:#000000;stroke-width:0.944882;stroke-dasharray:none;stroke-dashoffset:0;stroke-opacity:0"
       transform="matrix(0.23429863,0,0,0.23357814,187.01556,69.892923)"><tspan
         x="102.32031"
         y="134.55656"
         id="tspan3231">αv2</tspan></text>
    <text
       xml:space="preserve"
       id="text10653-0-3-3"
       style="font-stretch:condensed;font-size:32px;font-family:Arial;-inkscape-font-specification:'Arial Condensed';white-space:pre;shape-inside:url(#rect10655-1-0-3);display:inline;opacity:0.96;fill:#000000;stroke:#000000;stroke-width:0.944882;stroke-dasharray:none;stroke-dashoffset:0;stroke-opacity:0"
       transform="matrix(0,-0.23357814,0.23429863,0,128.40458,150.39092)"><tspan
         x="102.32031"
         y="134.55656"
         id="tspan3233">z</tspan></text>
    <text
       xml:space="preserve"
       id="text10653-0-3-0-7-9"
       style="font-stretch:condensed;font-size:32px;font-family:Arial;-inkscape-font-specification:'Arial Condensed';white-space:pre;shape-inside:url(#rect10655-1-0-4-6-2);display:inline;opacity:0.96;fill:#000000;stroke:#000000;stroke-width:0.944882;stroke-dasharray:none;stroke-dashoffset:0;stroke-opacity:0"
       transform="matrix(0.23429863,0,0,0.23357814,146.32776,92.870376)"><tspan
         x="102.32031"
         y="134.55656"
         id="tspan3235">α</tspan></text>
    <path
       style="opacity:0.96;fill:#000080;fill-opacity:0;stroke:#000080;stroke-width:0.265253;stroke-dasharray:none"
       d="m 164.3571,122.51104 2.23264,0.33872 2.35502,1.1501 c 0.24621,0.12024 1.57157,1.43198 1.64524,1.4612 0.15868,0.0629 0.67532,1.21258 0.67532,1.21258 0,0 0.51487,2.22484 0.51487,2.47658 0,0.25175 0.238,2.18385 0.238,2.18385"
       id="path612"
       sodipodi:nodetypes="ccsscsc" />
    <text
       xml:space="preserve"
       id="text10653-0-3-0-7-7"
       style="font-stretch:condensed;font-size:32px;font-family:Arial;-inkscape-font-specification:'Arial Condensed';white-space:pre;shape-inside:url(#rect10655-1-0-4-6-0);display:inline;opacity:0.96;fill:#000000;stroke:#000000;stroke-width:0.944882;stroke-dasharray:none;stroke-dashoffset:0;stroke-opacity:0"
       transform="matrix(0.23429863,0,0,0.23357814,164.37773,52.889889)"><tspan
         x="102.32031"
         y="134.55656"
         id="tspan3237">ap</tspan></text>
    <path
       style="opacity:0.96;fill:none;stroke:#000080;stroke-width:0.190336;stroke-dasharray:none;stroke-dashoffset:0"
       d="m 229.98022,131.4204 c 0,0 0,17.99424 0,17.99424 l -1.31746,-0.25768 -1.41846,-0.27744 -2.18381,-0.22116 -1.64978,0.0688 c 0,0 -1.57459,0.27479 -1.64878,0.30752 -0.0742,0.0327 -0.83151,0.22973 -0.83151,0.22973 l -0.5792,0.1315 V 131.4204"
       id="path5561-5" />
    <path
       style="opacity:0.96;fill:none;stroke:#000080;stroke-width:0.221044;stroke-dasharray:none;stroke-dashoffset:0"
       d="m 226.62559,148.87356 -0.88215,0.60898 -1.12165,0.34215 -1.04803,0.26828 -1.28528,-0.0255 -1.01993,-0.20306 -0.91733,-0.46847"
       id="path5563-2" />
    <path
       style="opacity:0.96;fill:none;stroke:#000080;stroke-width:0.2;stroke-dasharray:none;stroke-dashoffset:0"
       d="M 201.07833,86.10815 V 72.644796"
       id="path5511-9" />
  </g>
</svg>
